<svg xmlns="http://www.w3.org/2000/svg" viewBox="0 0 1200 600" fill="none">
  <defs>
    <linearGradient id="skyGradient" x1="0%" y1="0%" x2="100%" y2="100%">
      <stop offset="0%" style="stop-color:#1e40af;stop-opacity:1" />
      <stop offset="50%" style="stop-color:#3b82f6;stop-opacity:1" />
      <stop offset="100%" style="stop-color:#60a5fa;stop-opacity:1" />
    </linearGradient>
    <linearGradient id="waterGradient" x1="0%" y1="0%" x2="100%" y2="100%">
      <stop offset="0%" style="stop-color:#1e3a8a;stop-opacity:1" />
      <stop offset="100%" style="stop-color:#1e40af;stop-opacity:1" />
    </linearGradient>
    <linearGradient id="containerGradient" x1="0%" y1="0%" x2="100%" y2="100%">
      <stop offset="0%" style="stop-color:#f8fafc;stop-opacity:1" />
      <stop offset="100%" style="stop-color:#e2e8f0;stop-opacity:1" />
    </linearGradient>
  </defs>
  
  <!-- Sky background -->
  <rect width="1200" height="400" fill="url(#skyGradient)"/>
  
  <!-- Water -->
  <rect x="0" y="400" width="1200" height="200" fill="url(#waterGradient)"/>
  
  <!-- Water waves -->
  <path d="M0 400 Q150 380 300 400 T600 400 T900 400 T1200 400 L1200 600 L0 600 Z" fill="#1d4ed8" opacity="0.8"/>
  <path d="M0 420 Q200 400 400 420 T800 420 T1200 420 L1200 600 L0 600 Z" fill="#1e40af" opacity="0.6"/>
  
  <!-- Large cargo ship -->
  <g transform="translate(200, 300)">
    <!-- Ship hull -->
    <path d="M0 100 L400 100 L420 80 L420 40 L400 20 L0 20 Z" fill="#1f2937" stroke="#374151" stroke-width="2"/>
    
    <!-- Ship deck -->
    <rect x="20" y="20" width="360" height="20" fill="#374151"/>
    
    <!-- Ship containers -->
    <g transform="translate(40, 0)">
      <!-- Container row 1 -->
      <rect x="0" y="0" width="40" height="60" fill="url(#containerGradient)" stroke="#cbd5e1" stroke-width="1"/>
      <rect x="50" y="0" width="40" height="60" fill="url(#containerGradient)" stroke="#cbd5e1" stroke-width="1"/>
      <rect x="100" y="0" width="40" height="60" fill="url(#containerGradient)" stroke="#cbd5e1" stroke-width="1"/>
      <rect x="150" y="0" width="40" height="60" fill="url(#containerGradient)" stroke="#cbd5e1" stroke-width="1"/>
      <rect x="200" y="0" width="40" height="60" fill="url(#containerGradient)" stroke="#cbd5e1" stroke-width="1"/>
      <rect x="250" y="0" width="40" height="60" fill="url(#containerGradient)" stroke="#cbd5e1" stroke-width="1"/>
      
      <!-- Container row 2 -->
      <rect x="0" y="70" width="40" height="60" fill="url(#containerGradient)" stroke="#cbd5e1" stroke-width="1"/>
      <rect x="50" y="70" width="40" height="60" fill="url(#containerGradient)" stroke="#cbd5e1" stroke-width="1"/>
      <rect x="100" y="70" width="40" height="60" fill="url(#containerGradient)" stroke="#cbd5e1" stroke-width="1"/>
      <rect x="150" y="70" width="40" height="60" fill="url(#containerGradient)" stroke="#cbd5e1" stroke-width="1"/>
      <rect x="200" y="70" width="40" height="60" fill="url(#containerGradient)" stroke="#cbd5e1" stroke-width="1"/>
      <rect x="250" y="70" width="40" height="60" fill="url(#containerGradient)" stroke="#cbd5e1" stroke-width="1"/>
    </g>
    
    <!-- Ship bridge -->
    <rect x="350" y="0" width="50" height="80" fill="#374151" stroke="#4b5563" stroke-width="1"/>
    <rect x="360" y="10" width="30" height="20" fill="#1f2937"/>
    <rect x="360" y="40" width="30" height="20" fill="#1f2937"/>
    
    <!-- Ship funnel -->
    <rect x="380" y="-20" width="20" height="40" fill="#dc2626"/>
    <rect x="375" y="-25" width="30" height="10" fill="#ef4444"/>
  </g>
  
  <!-- Terminal cranes in background -->
  <g transform="translate(800, 200)" opacity="0.7">
    <!-- Crane 1 -->
    <rect x="0" y="0" width="8" height="120" fill="#6b7280"/>
    <rect x="-20" y="0" width="48" height="8" fill="#6b7280"/>
    <rect x="-10" y="-10" width="28" height="8" fill="#9ca3af"/>
  </g>
  
  <g transform="translate(900, 180)" opacity="0.7">
    <!-- Crane 2 -->
    <rect x="0" y="0" width="8" height="140" fill="#6b7280"/>
    <rect x="-20" y="0" width="48" height="8" fill="#6b7280"/>
    <rect x="-10" y="-10" width="28" height="8" fill="#9ca3af"/>
  </g>
  
  <!-- Terminal containers on land -->
  <g transform="translate(750, 350)">
    <rect x="0" y="0" width="30" height="45" fill="url(#containerGradient)" stroke="#cbd5e1" stroke-width="1"/>
    <rect x="40" y="0" width="30" height="45" fill="url(#containerGradient)" stroke="#cbd5e1" stroke-width="1"/>
    <rect x="80" y="0" width="30" height="45" fill="url(#containerGradient)" stroke="#cbd5e1" stroke-width="1"/>
    <rect x="120" y="0" width="30" height="45" fill="url(#containerGradient)" stroke="#cbd5e1" stroke-width="1"/>
    <rect x="160" y="0" width="30" height="45" fill="url(#containerGradient)" stroke="#cbd5e1" stroke-width="1"/>
    
    <!-- Stacked containers -->
    <rect x="20" y="-45" width="30" height="45" fill="url(#containerGradient)" stroke="#cbd5e1" stroke-width="1"/>
    <rect x="60" y="-45" width="30" height="45" fill="url(#containerGradient)" stroke="#cbd5e1" stroke-width="1"/>
    <rect x="100" y="-45" width="30" height="45" fill="url(#containerGradient)" stroke="#cbd5e1" stroke-width="1"/>
    <rect x="140" y="-45" width="30" height="45" fill="url(#containerGradient)" stroke="#cbd5e1" stroke-width="1"/>
  </g>
  
  <!-- Clouds -->
  <g opacity="0.6">
    <ellipse cx="100" cy="80" rx="40" ry="20" fill="#ffffff"/>
    <ellipse cx="120" cy="80" rx="30" ry="15" fill="#ffffff"/>
    <ellipse cx="80" cy="80" rx="25" ry="12" fill="#ffffff"/>
    
    <ellipse cx="1000" cy="60" rx="35" ry="18" fill="#ffffff"/>
    <ellipse cx="1020" cy="60" rx="25" ry="12" fill="#ffffff"/>
    <ellipse cx="980" cy="60" rx="20" ry="10" fill="#ffffff"/>
  </g>
  
  <!-- Sun -->
  <circle cx="1100" cy="100" r="30" fill="#fbbf24" opacity="0.8"/>
  <g stroke="#f59e0b" stroke-width="2" opacity="0.6">
    <line x1="1100" y1="50" x2="1100" y2="40"/>
    <line x1="1100" y1="150" x2="1100" y2="160"/>
    <line x1="1050" y1="100" x2="1040" y2="100"/>
    <line x1="1150" y1="100" x2="1160" y2="100"/>
    <line x1="1065" y1="65" x2="1055" y2="55"/>
    <line x1="1135" y1="135" x2="1145" y2="145"/>
    <line x1="1065" y1="135" x2="1055" y2="145"/>
    <line x1="1135" y1="65" x2="1145" y2="55"/>
  </g>
</svg>
