<svg xmlns="http://www.w3.org/2000/svg" viewBox="0 0 1200 800" fill="none">
  <defs>
    <pattern id="dotPattern" x="0" y="0" width="8" height="8" patternUnits="userSpaceOnUse">
      <circle cx="4" cy="4" r="1.5" fill="#404040"/>
    </pattern>
    <pattern id="highlightPattern" x="0" y="0" width="8" height="8" patternUnits="userSpaceOnUse">
      <circle cx="4" cy="4" r="1.5" fill="#2563eb"/>
    </pattern>
  </defs>
  
  <!-- Background -->
  <rect width="1200" height="800" fill="#0a0a0a"/>
  
  <!-- World map base (dotted pattern) -->
  <rect width="1200" height="800" fill="url(#dotPattern)"/>
  
  <!-- North America highlighted regions -->
  <g fill="url(#highlightPattern)">
    <!-- Canada -->
    <rect x="200" y="80" width="120" height="60" rx="4"/>
    <rect x="180" y="140" width="80" height="40" rx="4"/>
    <rect x="160" y="180" width="60" height="30" rx="4"/>
    
    <!-- United States -->
    <rect x="280" y="140" width="200" height="80" rx="4"/>
    <rect x="300" y="220" width="180" height="60" rx="4"/>
    <rect x="320" y="280" width="160" height="40" rx="4"/>
    <rect x="340" y="320" width="140" height="30" rx="4"/>
    
    <!-- Mexico -->
    <rect x="300" y="350" width="120" height="50" rx="4"/>
    <rect x="320" y="400" width="100" height="40" rx="4"/>
    
    <!-- Central America -->
    <rect x="380" y="400" width="40" height="60" rx="4"/>
    <rect x="420" y="420" width="30" height="40" rx="4"/>
    <rect x="450" y="440" width="25" height="30" rx="4"/>
  </g>
  
  <!-- South America highlighted regions -->
  <g fill="url(#highlightPattern)">
    <!-- Brazil -->
    <rect x="500" y="400" width="180" height="120" rx="4"/>
    <rect x="520" y="520" width="160" height="80" rx="4"/>
    <rect x="540" y="600" width="140" height="60" rx="4"/>
    
    <!-- Argentina -->
    <rect x="680" y="500" width="80" height="160" rx="4"/>
    <rect x="700" y="660" width="60" height="40" rx="4"/>
    
    <!-- Chile -->
    <rect x="760" y="480" width="30" height="180" rx="4"/>
    
    <!-- Colombia/Venezuela -->
    <rect x="480" y="380" width="60" height="40" rx="4"/>
    <rect x="500" y="360" width="50" height="30" rx="4"/>
    
    <!-- Peru -->
    <rect x="580" y="480" width="60" height="80" rx="4"/>
    
    <!-- Ecuador -->
    <rect x="560" y="460" width="40" height="30" rx="4"/>
  </g>
  
  <!-- Caribbean Islands -->
  <g fill="url(#highlightPattern)">
    <rect x="450" y="320" width="15" height="10" rx="2"/>
    <rect x="470" y="310" width="12" height="8" rx="2"/>
    <rect x="485" y="315" width="10" height="6" rx="2"/>
    <rect x="500" y="320" width="8" height="5" rx="2"/>
    <rect x="520" y="325" width="6" height="4" rx="2"/>
  </g>
  
  <!-- Connection lines between major regions -->
  <g stroke="#2563eb" stroke-width="2" opacity="0.6">
    <line x1="380" y1="180" x2="590" y2="460"/>
    <line x1="400" y1="200" x2="650" y2="580"/>
    <line x1="420" y1="220" x2="720" y2="640"/>
    <line x1="360" y1="160" x2="540" y2="420"/>
  </g>
  
  <!-- Terminal/city markers -->
  <g fill="#ffffff">
    <circle cx="380" cy="180" r="6"/>
    <circle cx="400" cy="200" r="6"/>
    <circle cx="420" cy="220" r="6"/>
    <circle cx="590" cy="460" r="6"/>
    <circle cx="650" cy="580" r="6"/>
    <circle cx="720" cy="640" r="6"/>
    <circle cx="540" cy="420" r="6"/>
  </g>
</svg>
